<mxfile host="app.diagrams.net" modified="2021-10-10T00:35:46.083Z" agent="5.0 (Macintosh; Intel Mac OS X 10_15_7) AppleWebKit/537.36 (KHTML, like Gecko) Chrome/94.0.4606.71 Safari/537.36" etag="cj-eDgh_7xhAlL_gSB2g" version="15.5.0" type="github">
  <diagram id="C5RBs43oDa-KdzZeNtuy" name="Page-1">
    <mxGraphModel dx="946" dy="614" grid="1" gridSize="10" guides="1" tooltips="1" connect="1" arrows="1" fold="1" page="1" pageScale="1" pageWidth="827" pageHeight="1169" math="0" shadow="0">
      <root>
        <mxCell id="WIyWlLk6GJQsqaUBKTNV-0" />
        <mxCell id="WIyWlLk6GJQsqaUBKTNV-1" parent="WIyWlLk6GJQsqaUBKTNV-0" />
        <mxCell id="zkfFHV4jXpPFQw0GAbJ--0" value="&lt;&lt; Animals &gt;&gt;" style="swimlane;fontStyle=2;align=center;verticalAlign=top;childLayout=stackLayout;horizontal=1;startSize=26;horizontalStack=0;resizeParent=1;resizeLast=0;collapsible=1;marginBottom=0;rounded=0;shadow=0;strokeWidth=1;" parent="WIyWlLk6GJQsqaUBKTNV-1" vertex="1">
          <mxGeometry x="320" y="40" width="160" height="190" as="geometry">
            <mxRectangle x="230" y="140" width="160" height="26" as="alternateBounds" />
          </mxGeometry>
        </mxCell>
        <mxCell id="zkfFHV4jXpPFQw0GAbJ--1" value="+name: string&#xa;+location: string&#xa;+age: int&#xa;+size: int&#xa;&#xa;" style="text;align=left;verticalAlign=top;spacingLeft=4;spacingRight=4;overflow=hidden;rotatable=0;points=[[0,0.5],[1,0.5]];portConstraint=eastwest;" parent="zkfFHV4jXpPFQw0GAbJ--0" vertex="1">
          <mxGeometry y="26" width="160" height="74" as="geometry" />
        </mxCell>
        <mxCell id="zkfFHV4jXpPFQw0GAbJ--4" value="" style="line;html=1;strokeWidth=1;align=left;verticalAlign=middle;spacingTop=-1;spacingLeft=3;spacingRight=3;rotatable=0;labelPosition=right;points=[];portConstraint=eastwest;" parent="zkfFHV4jXpPFQw0GAbJ--0" vertex="1">
          <mxGeometry y="100" width="160" height="8" as="geometry" />
        </mxCell>
        <mxCell id="zkfFHV4jXpPFQw0GAbJ--5" value="+setLocation(): double&#xa;+setName(): double&#xa;+setSize(): double&#xa;+setAge(): doubleÂ &#xa;" style="text;align=left;verticalAlign=top;spacingLeft=4;spacingRight=4;overflow=hidden;rotatable=0;points=[[0,0.5],[1,0.5]];portConstraint=eastwest;" parent="zkfFHV4jXpPFQw0GAbJ--0" vertex="1">
          <mxGeometry y="108" width="160" height="82" as="geometry" />
        </mxCell>
        <mxCell id="jzDyaQQ5bKFg805i4b5c-20" style="edgeStyle=none;rounded=0;orthogonalLoop=1;jettySize=auto;html=1;exitX=1;exitY=0;exitDx=0;exitDy=0;" edge="1" parent="WIyWlLk6GJQsqaUBKTNV-1" source="jzDyaQQ5bKFg805i4b5c-0" target="zkfFHV4jXpPFQw0GAbJ--5">
          <mxGeometry relative="1" as="geometry" />
        </mxCell>
        <mxCell id="jzDyaQQ5bKFg805i4b5c-0" value="Monkey" style="rounded=0;whiteSpace=wrap;html=1;" vertex="1" parent="WIyWlLk6GJQsqaUBKTNV-1">
          <mxGeometry x="23" y="400" width="130" height="30" as="geometry" />
        </mxCell>
        <mxCell id="jzDyaQQ5bKFg805i4b5c-1" value="+color: string&lt;br&gt;+height: int" style="rounded=0;whiteSpace=wrap;html=1;align=left;" vertex="1" parent="WIyWlLk6GJQsqaUBKTNV-1">
          <mxGeometry x="23" y="430" width="130" height="40" as="geometry" />
        </mxCell>
        <mxCell id="jzDyaQQ5bKFg805i4b5c-5" value="+setHeight()" style="rounded=0;whiteSpace=wrap;html=1;align=left;" vertex="1" parent="WIyWlLk6GJQsqaUBKTNV-1">
          <mxGeometry x="23" y="470" width="130" height="30" as="geometry" />
        </mxCell>
        <mxCell id="jzDyaQQ5bKFg805i4b5c-21" style="edgeStyle=none;rounded=0;orthogonalLoop=1;jettySize=auto;html=1;exitX=0.5;exitY=0;exitDx=0;exitDy=0;" edge="1" parent="WIyWlLk6GJQsqaUBKTNV-1" source="jzDyaQQ5bKFg805i4b5c-6" target="zkfFHV4jXpPFQw0GAbJ--5">
          <mxGeometry relative="1" as="geometry" />
        </mxCell>
        <mxCell id="jzDyaQQ5bKFg805i4b5c-6" value="Lion" style="rounded=0;whiteSpace=wrap;html=1;align=center;" vertex="1" parent="WIyWlLk6GJQsqaUBKTNV-1">
          <mxGeometry x="183" y="400" width="120" height="30" as="geometry" />
        </mxCell>
        <mxCell id="jzDyaQQ5bKFg805i4b5c-22" style="edgeStyle=none;rounded=0;orthogonalLoop=1;jettySize=auto;html=1;exitX=0.5;exitY=0;exitDx=0;exitDy=0;entryX=0.478;entryY=0.983;entryDx=0;entryDy=0;entryPerimeter=0;" edge="1" parent="WIyWlLk6GJQsqaUBKTNV-1" source="jzDyaQQ5bKFg805i4b5c-7" target="zkfFHV4jXpPFQw0GAbJ--5">
          <mxGeometry relative="1" as="geometry" />
        </mxCell>
        <mxCell id="jzDyaQQ5bKFg805i4b5c-7" value="Tiger" style="rounded=0;whiteSpace=wrap;html=1;align=center;" vertex="1" parent="WIyWlLk6GJQsqaUBKTNV-1">
          <mxGeometry x="333" y="400" width="137" height="30" as="geometry" />
        </mxCell>
        <mxCell id="jzDyaQQ5bKFg805i4b5c-23" style="edgeStyle=none;rounded=0;orthogonalLoop=1;jettySize=auto;html=1;exitX=0.5;exitY=0;exitDx=0;exitDy=0;" edge="1" parent="WIyWlLk6GJQsqaUBKTNV-1" source="jzDyaQQ5bKFg805i4b5c-8">
          <mxGeometry relative="1" as="geometry">
            <mxPoint x="430" y="230" as="targetPoint" />
          </mxGeometry>
        </mxCell>
        <mxCell id="jzDyaQQ5bKFg805i4b5c-8" value="Penguin" style="rounded=0;whiteSpace=wrap;html=1;align=center;" vertex="1" parent="WIyWlLk6GJQsqaUBKTNV-1">
          <mxGeometry x="503" y="400" width="127" height="30" as="geometry" />
        </mxCell>
        <mxCell id="jzDyaQQ5bKFg805i4b5c-24" style="edgeStyle=none;rounded=0;orthogonalLoop=1;jettySize=auto;html=1;exitX=0.5;exitY=0;exitDx=0;exitDy=0;" edge="1" parent="WIyWlLk6GJQsqaUBKTNV-1" source="jzDyaQQ5bKFg805i4b5c-9">
          <mxGeometry relative="1" as="geometry">
            <mxPoint x="470" y="230" as="targetPoint" />
          </mxGeometry>
        </mxCell>
        <mxCell id="jzDyaQQ5bKFg805i4b5c-9" value="Flamingo" style="rounded=0;whiteSpace=wrap;html=1;align=center;" vertex="1" parent="WIyWlLk6GJQsqaUBKTNV-1">
          <mxGeometry x="663" y="400" width="137" height="30" as="geometry" />
        </mxCell>
        <mxCell id="jzDyaQQ5bKFg805i4b5c-10" value="" style="rounded=0;whiteSpace=wrap;html=1;align=left;" vertex="1" parent="WIyWlLk6GJQsqaUBKTNV-1">
          <mxGeometry x="183" y="430" width="120" height="30" as="geometry" />
        </mxCell>
        <mxCell id="jzDyaQQ5bKFg805i4b5c-11" value="" style="rounded=0;whiteSpace=wrap;html=1;align=center;" vertex="1" parent="WIyWlLk6GJQsqaUBKTNV-1">
          <mxGeometry x="333" y="430" width="137" height="30" as="geometry" />
        </mxCell>
        <mxCell id="jzDyaQQ5bKFg805i4b5c-12" value="" style="rounded=0;whiteSpace=wrap;html=1;align=center;" vertex="1" parent="WIyWlLk6GJQsqaUBKTNV-1">
          <mxGeometry x="503" y="430" width="127" height="30" as="geometry" />
        </mxCell>
        <mxCell id="jzDyaQQ5bKFg805i4b5c-13" value="" style="rounded=0;whiteSpace=wrap;html=1;align=center;" vertex="1" parent="WIyWlLk6GJQsqaUBKTNV-1">
          <mxGeometry x="663" y="430" width="137" height="30" as="geometry" />
        </mxCell>
        <mxCell id="jzDyaQQ5bKFg805i4b5c-35" value="order" style="edgeStyle=none;rounded=0;orthogonalLoop=1;jettySize=auto;html=1;entryX=0.5;entryY=1;entryDx=0;entryDy=0;" edge="1" parent="WIyWlLk6GJQsqaUBKTNV-1" source="jzDyaQQ5bKFg805i4b5c-14" target="jzDyaQQ5bKFg805i4b5c-5">
          <mxGeometry relative="1" as="geometry">
            <mxPoint x="88" y="560" as="targetPoint" />
          </mxGeometry>
        </mxCell>
        <mxCell id="jzDyaQQ5bKFg805i4b5c-14" value="&amp;lt;&amp;lt; &lt;i&gt;Food&lt;/i&gt; &amp;gt;&amp;gt;" style="rounded=0;whiteSpace=wrap;html=1;align=center;" vertex="1" parent="WIyWlLk6GJQsqaUBKTNV-1">
          <mxGeometry x="28" y="650" width="120" height="40" as="geometry" />
        </mxCell>
        <mxCell id="jzDyaQQ5bKFg805i4b5c-15" value="&amp;lt;&amp;lt; &lt;i&gt;Habitat&lt;/i&gt; &amp;gt;&amp;gt;" style="rounded=0;whiteSpace=wrap;html=1;align=center;" vertex="1" parent="WIyWlLk6GJQsqaUBKTNV-1">
          <mxGeometry x="640" y="650" width="130" height="40" as="geometry" />
        </mxCell>
        <mxCell id="jzDyaQQ5bKFg805i4b5c-16" value="-foodOrder: string&amp;nbsp;" style="rounded=0;whiteSpace=wrap;html=1;align=left;" vertex="1" parent="WIyWlLk6GJQsqaUBKTNV-1">
          <mxGeometry x="28" y="690" width="120" height="40" as="geometry" />
        </mxCell>
        <mxCell id="jzDyaQQ5bKFg805i4b5c-18" value="-orderFood(): string" style="rounded=0;whiteSpace=wrap;html=1;align=left;" vertex="1" parent="WIyWlLk6GJQsqaUBKTNV-1">
          <mxGeometry x="28" y="730" width="120" height="40" as="geometry" />
        </mxCell>
        <mxCell id="jzDyaQQ5bKFg805i4b5c-26" value="+habitatLocation: string&lt;br&gt;+cageID: int" style="rounded=0;whiteSpace=wrap;html=1;align=left;" vertex="1" parent="WIyWlLk6GJQsqaUBKTNV-1">
          <mxGeometry x="640" y="690" width="130" height="40" as="geometry" />
        </mxCell>
        <mxCell id="jzDyaQQ5bKFg805i4b5c-27" value="habitatName(): string&lt;br&gt;" style="rounded=0;whiteSpace=wrap;html=1;align=left;" vertex="1" parent="WIyWlLk6GJQsqaUBKTNV-1">
          <mxGeometry x="640" y="730" width="130" height="40" as="geometry" />
        </mxCell>
        <mxCell id="jzDyaQQ5bKFg805i4b5c-28" value="" style="rounded=0;whiteSpace=wrap;html=1;align=left;" vertex="1" parent="WIyWlLk6GJQsqaUBKTNV-1">
          <mxGeometry x="183" y="460" width="120" height="30" as="geometry" />
        </mxCell>
        <mxCell id="jzDyaQQ5bKFg805i4b5c-30" value="" style="rounded=0;whiteSpace=wrap;html=1;align=left;" vertex="1" parent="WIyWlLk6GJQsqaUBKTNV-1">
          <mxGeometry x="333" y="460" width="137" height="30" as="geometry" />
        </mxCell>
        <mxCell id="jzDyaQQ5bKFg805i4b5c-31" value="" style="rounded=0;whiteSpace=wrap;html=1;align=left;" vertex="1" parent="WIyWlLk6GJQsqaUBKTNV-1">
          <mxGeometry x="503" y="460" width="127" height="30" as="geometry" />
        </mxCell>
        <mxCell id="jzDyaQQ5bKFg805i4b5c-33" value="" style="rounded=0;whiteSpace=wrap;html=1;align=left;" vertex="1" parent="WIyWlLk6GJQsqaUBKTNV-1">
          <mxGeometry x="663" y="460" width="137" height="30" as="geometry" />
        </mxCell>
      </root>
    </mxGraphModel>
  </diagram>
</mxfile>
